<svg xmlns="http://www.w3.org/2000/svg" style="display: none;"><symbol id="portfolio" viewBox="0 -31 512 512"><title>portfolio</title><path d="m497.09375 60.003906c-.03125 0-.0625-.003906-.09375-.003906h-136v-15c0-24.8125-20.1875-45-45-45h-120c-24.8125 0-45 20.1875-45 45v15h-136c-8.351562 0-15 6.84375-15 15v330c0 24.8125 20.1875 45 45 45h422c24.8125 0 45-20.1875 45-45v-329.683594c0-.019531 0-.039062 0-.058594-.574219-9.851562-6.632812-15.199218-14.90625-15.253906zm-316.09375-15.003906c0-8.269531 6.730469-15 15-15h120c8.269531 0 15 6.730469 15 15v15h-150zm295.1875 45-46.582031 139.742188c-2.042969 6.136718-7.761719 10.257812-14.226563 10.257812h-84.378906v-15c0-8.285156-6.714844-15-15-15h-120c-8.285156 0-15 6.714844-15 15v15h-84.378906c-6.464844 0-12.183594-4.121094-14.226563-10.257812l-46.582031-139.742188zm-175.1875 150v30h-90v-30zm181 165c0 8.269531-6.730469 15-15 15h-422c-8.269531 0-15-6.730469-15-15v-237.566406l23.933594 71.796875c6.132812 18.40625 23.289062 30.769531 42.6875 30.769531h84.378906v15c0 8.285156 6.714844 15 15 15h120c8.285156 0 15-6.714844 15-15v-15h84.378906c19.398438 0 36.554688-12.363281 42.6875-30.769531l23.933594-71.796875zm0 0"/></symbol><symbol id="avatar" viewBox="0 0 482.9 482.9"><title>avatar</title><path d="M239.7,260.2c0.5,0,1,0,1.6,0c0.2,0,0.4,0,0.6,0c0.3,0,0.7,0,1,0c29.3-0.5,53-10.8,70.5-30.5 c38.5-43.4,32.1-117.8,31.4-124.9c-2.5-53.3-27.7-78.8-48.5-90.7C280.8,5.2,262.7,0.4,242.5,0h-0.7c-0.1,0-0.3,0-0.4,0h-0.6 c-11.1,0-32.9,1.8-53.8,13.7c-21,11.9-46.6,37.4-49.1,91.1c-0.7,7.1-7.1,81.5,31.4,124.9C186.7,249.4,210.4,259.7,239.7,260.2z M164.6,107.3c0-0.3,0.1-0.6,0.1-0.8c3.3-71.7,54.2-79.4,76-79.4h0.4c0.2,0,0.5,0,0.8,0c27,0.6,72.9,11.6,76,79.4 c0,0.3,0,0.6,0.1,0.8c0.1,0.7,7.1,68.7-24.7,104.5c-12.6,14.2-29.4,21.2-51.5,21.4c-0.2,0-0.3,0-0.5,0l0,0c-0.2,0-0.3,0-0.5,0 c-22-0.2-38.9-7.2-51.4-21.4C157.7,176.2,164.5,107.9,164.6,107.3z"/><path d="M446.8,383.6c0-0.1,0-0.2,0-0.3c0-0.8-0.1-1.6-0.1-2.5c-0.6-19.8-1.9-66.1-45.3-80.9c-0.3-0.1-0.7-0.2-1-0.3 c-45.1-11.5-82.6-37.5-83-37.8c-6.1-4.3-14.5-2.8-18.8,3.3c-4.3,6.1-2.8,14.5,3.3,18.8c1.7,1.2,41.5,28.9,91.3,41.7 c23.3,8.3,25.9,33.2,26.6,56c0,0.9,0,1.7,0.1,2.5c0.1,9-0.5,22.9-2.1,30.9c-16.2,9.2-79.7,41-176.3,41 c-96.2,0-160.1-31.9-176.4-41.1c-1.6-8-2.3-21.9-2.1-30.9c0-0.8,0.1-1.6,0.1-2.5c0.7-22.8,3.3-47.7,26.6-56 c49.8-12.8,89.6-40.6,91.3-41.7c6.1-4.3,7.6-12.7,3.3-18.8c-4.3-6.1-12.7-7.6-18.8-3.3c-0.4,0.3-37.7,26.3-83,37.8 c-0.4,0.1-0.7,0.2-1,0.3c-43.4,14.9-44.7,61.2-45.3,80.9c0,0.9,0,1.7-0.1,2.5c0,0.1,0,0.2,0,0.3c-0.1,5.2-0.2,31.9,5.1,45.3 c1,2.6,2.8,4.8,5.2,6.3c3,2,74.9,47.8,195.2,47.8s192.2-45.9,195.2-47.8c2.3-1.5,4.2-3.7,5.2-6.3 C447,415.5,446.9,388.8,446.8,383.6z"/></symbol><symbol id="garbage" viewBox="0 0 59 59"><title>garbage</title><path d="M29.5,51c0.552,0,1-0.447,1-1V17c0-0.553-0.448-1-1-1s-1,0.447-1,1v33C28.5,50.553,28.948,51,29.5,51z"/><path d="M19.5,51c0.552,0,1-0.447,1-1V17c0-0.553-0.448-1-1-1s-1,0.447-1,1v33C18.5,50.553,18.948,51,19.5,51z"/><path d="M39.5,51c0.552,0,1-0.447,1-1V17c0-0.553-0.448-1-1-1s-1,0.447-1,1v33C38.5,50.553,38.948,51,39.5,51z"/><path d="M52.5,6H38.456c-0.11-1.25-0.495-3.358-1.813-4.711C35.809,0.434,34.751,0,33.499,0H23.5c-1.252,0-2.31,0.434-3.144,1.289 C19.038,2.642,18.653,4.75,18.543,6H6.5c-0.552,0-1,0.447-1,1s0.448,1,1,1h2.041l1.915,46.021C10.493,55.743,11.565,59,15.364,59 h28.272c3.799,0,4.871-3.257,4.907-4.958L50.459,8H52.5c0.552,0,1-0.447,1-1S53.052,6,52.5,6z M21.792,2.681 C22.24,2.223,22.799,2,23.5,2h9.999c0.701,0,1.26,0.223,1.708,0.681c0.805,0.823,1.128,2.271,1.24,3.319H20.553 C20.665,4.952,20.988,3.504,21.792,2.681z M46.544,53.979C46.538,54.288,46.4,57,43.636,57H15.364 c-2.734,0-2.898-2.717-2.909-3.042L10.542,8h37.915L46.544,53.979z"/></symbol><symbol id="magnifying-glass" viewBox="0 0 451 451"><title>magnifying-glass</title><path d="M447.05,428l-109.6-109.6c29.4-33.8,47.2-77.9,47.2-126.1C384.65,86.2,298.35,0,192.35,0C86.25,0,0.05,86.3,0.05,192.3 s86.3,192.3,192.3,192.3c48.2,0,92.3-17.8,126.1-47.2L428.05,447c2.6,2.6,6.1,4,9.5,4s6.9-1.3,9.5-4 C452.25,441.8,452.25,433.2,447.05,428z M26.95,192.3c0-91.2,74.2-165.3,165.3-165.3c91.2,0,165.3,74.2,165.3,165.3 s-74.1,165.4-165.3,165.4C101.15,357.7,26.95,283.5,26.95,192.3z"/></symbol><symbol id="folder" viewBox="0 0 60 60"><title>folder</title><path d="M57.49,27H54v-6.268C54,19.226,52.774,18,51.268,18H50V0H10v2H7v2H4v7H2.732C1.226,11,0,12.226,0,13.732v43.687l0.006,0 c-0.005,0.563,0.17,1.114,0.522,1.575C1.018,59.634,1.76,60,2.565,60h44.759c1.157,0,2.175-0.78,2.449-1.813L60,30.149v-0.177 C60,28.25,58.944,27,57.49,27z M51.268,20C51.672,20,52,20.328,52,20.732V27h-2v-7H51.268z M48,2v16v9H12.731 c-0.233,0-0.457,0.039-0.674,0.098c-0.018,0.005-0.039,0.003-0.057,0.008V2H48z M10,4v25.585l-0.063,0.173L9,32.326V4H10z M6,6h1 v31.81l-1,2.741V11V6z M2,13.732C2,13.328,2.329,13,2.732,13H4v32.943l-2,5.455V13.732z M47.868,57.584 C47.803,57.829,47.579,58,47.324,58H2.565c-0.243,0-0.385-0.139-0.448-0.222c-0.063-0.082-0.16-0.256-0.123-0.408L4,51.87v0.001 l3-8.225l0,0l3-8.225v0.003l1.932-5.301L12,29.938l0,0l0.16-0.439l0.026-0.082C12.252,29.172,12.477,29,12.731,29H48h2h4h3.49 c0.379,0,0.477,0.546,0.501,0.819L47.868,57.584z"/><path d="M18,17h24c0.552,0,1-0.447,1-1s-0.448-1-1-1H18c-0.552,0-1,0.447-1,1S17.448,17,18,17z"/><path d="M18,10h10c0.552,0,1-0.447,1-1s-0.448-1-1-1H18c-0.552,0-1,0.447-1,1S17.448,10,18,10z"/><path d="M18,24h24c0.552,0,1-0.447,1-1s-0.448-1-1-1H18c-0.552,0-1,0.447-1,1S17.448,24,18,24z"/></symbol><symbol id="notepad" viewBox="0 0 60 60"><title>notepad</title><path d="M15,19h9c0.553,0,1-0.447,1-1s-0.447-1-1-1h-9c-0.553,0-1,0.447-1,1S14.447,19,15,19z"/><path d="M15,26h5c0.553,0,1-0.447,1-1s-0.447-1-1-1h-5c-0.553,0-1,0.447-1,1S14.447,26,15,26z"/><path d="M28,26h7c0.553,0,1-0.447,1-1s-0.447-1-1-1h-7c-0.553,0-1,0.447-1,1S27.447,26,28,26z"/><path d="M24.71,25.71C24.89,25.52,25,25.26,25,25c0-0.261-0.11-0.521-0.29-0.71c-0.38-0.37-1.04-0.37-1.42,0 C23.109,24.479,23,24.739,23,25c0,0.26,0.109,0.52,0.29,0.71C23.479,25.899,23.729,26,24,26C24.26,26,24.52,25.89,24.71,25.71z"/><path d="M39,26c0.27,0,0.52-0.11,0.71-0.29C39.89,25.52,40,25.26,40,25c0-0.261-0.11-0.521-0.29-0.71c-0.38-0.37-1.04-0.37-1.42,0 C38.109,24.479,38,24.739,38,25c0,0.26,0.109,0.52,0.29,0.71C38.479,25.899,38.729,26,39,26z"/><path d="M18,32c0,0.553,0.447,1,1,1h7c0.553,0,1-0.447,1-1s-0.447-1-1-1h-7C18.447,31,18,31.447,18,32z"/><path d="M15.71,32.71C15.899,32.52,16,32.26,16,32c0-0.261-0.101-0.521-0.29-0.71c-0.38-0.37-1.04-0.37-1.42,0 C14.1,31.479,14,31.729,14,32c0,0.26,0.109,0.52,0.29,0.71C14.479,32.89,14.74,33,15,33S15.52,32.89,15.71,32.71z"/><path d="M20.525,37.137c-2.19,1.14-2.927,3.321-3.196,5.582c-0.414-0.347-0.828-0.693-1.241-1.04 c-0.98-0.821-2.402,0.586-1.414,1.415c0.935,0.783,1.871,1.567,2.806,2.351c0.658,0.551,1.676,0.203,1.707-0.707 c0.073-2.166,0.175-4.742,2.348-5.873C22.677,38.269,21.667,36.542,20.525,37.137z"/><path d="M27.175,41.125c-1.385,0.321-2.961,2.083-3.936,0.106c-0.569-1.154-2.295-0.142-1.727,1.009 c0.518,1.049,1.5,1.784,2.669,1.932c0.594,0.075,1.131-0.009,1.688-0.226c0.409-0.159,1.937-1.308,2.267-0.717 c0.628,1.124,2.356,0.117,1.727-1.009C29.326,41.258,28.239,40.878,27.175,41.125z"/><path d="M55.015,0h-4.029c-1.299,0-2.396,0.839-2.805,2H38h-6V1c0-0.553-0.447-1-1-1h-9c-0.553,0-1,0.447-1,1v1h-6H2v58h49v-4.484 l1,1.75V59c0,0.553,0.447,1,1,1s1-0.447,1-1v-1.734l4-7V13V7V2.985C58,1.339,56.661,0,55.015,0z M50,9h6v2h-6V9z M30,2v1v2h-7V3V2 H30z M21,4v2v1h1h9h1V6V4h5v3v1H16V7V4H21z M15,10h23h1V9h5v44H9V9h5v1H15z M49,58H4V4h10v3H7v48h39V7h-7V4h9v3v6v37.266l1,1.75V58 z M50.723,51h4.554L53,54.984l-2-3.5L50.723,51z M56,49h-6V13h6V49z M50,7V2.985C50,2.442,50.442,2,50.985,2h4.029 C55.558,2,56,2.442,56,2.985V7H50z"/></symbol><symbol id="archive" viewBox="0 0 60 60"><title>archive</title><path d="M60,8.311c0-0.199-0.052-0.382-0.131-0.551c-0.027-0.209-0.112-0.412-0.254-0.579L53.46,0H6.54L0.384,7.182 C0.242,7.348,0.157,7.55,0.131,7.76C0.052,7.929,0,8.112,0,8.311V19h3v41h54V19h3V8.311z M7.46,2h45.08l4.286,5H3.174L7.46,2z M55,58H5V19h50V58z M58,17h-1H3H2V9h56V17z"/><path d="M42,23H18v10h24V23z M40,31H20v-6h20V31z"/><path d="M45,38H15v14h30V38z M43,50H17V40h26V50z"/><path d="M22,48h5c0.552,0,1-0.447,1-1s-0.448-1-1-1h-5c-0.552,0-1,0.447-1,1S21.448,48,22,48z"/><path d="M27,44h11c0.552,0,1-0.447,1-1s-0.448-1-1-1H27c-0.552,0-1,0.447-1,1S26.448,44,27,44z"/><path d="M22,44c0.26,0,0.52-0.11,0.71-0.29C22.89,43.52,23,43.26,23,43c0-0.261-0.11-0.521-0.29-0.71c-0.38-0.37-1.04-0.37-1.42,0 C21.11,42.479,21,42.739,21,43c0,0.27,0.11,0.52,0.29,0.71C21.48,43.89,21.73,44,22,44z"/><path d="M31.29,46.29C31.11,46.479,31,46.739,31,47c0,0.26,0.11,0.52,0.29,0.71C31.48,47.89,31.74,48,32,48 c0.26,0,0.52-0.11,0.71-0.29C32.89,47.52,33,47.26,33,47c0-0.261-0.11-0.521-0.29-0.71C32.34,45.92,31.66,45.92,31.29,46.29z"/><path d="M38,46h-1c-0.552,0-1,0.447-1,1s0.448,1,1,1h1c0.552,0,1-0.447,1-1S38.552,46,38,46z"/></symbol><symbol id="plus" viewBox="0 0 52 52"><title>plus</title><path d="M26,0C11.664,0,0,11.663,0,26s11.664,26,26,26s26-11.663,26-26S40.336,0,26,0z M26,50C12.767,50,2,39.233,2,26 S12.767,2,26,2s24,10.767,24,24S39.233,50,26,50z"/><path d="M38.5,25H27V14c0-0.553-0.448-1-1-1s-1,0.447-1,1v11H13.5c-0.552,0-1,0.447-1,1s0.448,1,1,1H25v12c0,0.553,0.448,1,1,1 s1-0.447,1-1V27h11.5c0.552,0,1-0.447,1-1S39.052,25,38.5,25z"/></symbol><symbol id="list" viewBox="0 0 60.123 60.123"><title>list</title><path d="M57.124,51.893H16.92c-1.657,0-3-1.343-3-3s1.343-3,3-3h40.203c1.657,0,3,1.343,3,3S58.781,51.893,57.124,51.893z"/><path d="M57.124,33.062H16.92c-1.657,0-3-1.343-3-3s1.343-3,3-3h40.203c1.657,0,3,1.343,3,3 C60.124,31.719,58.781,33.062,57.124,33.062z"/><path d="M57.124,14.231H16.92c-1.657,0-3-1.343-3-3s1.343-3,3-3h40.203c1.657,0,3,1.343,3,3S58.781,14.231,57.124,14.231z"/><circle cx="4.029" cy="11.463" r="4.029"/><circle cx="4.029" cy="30.062" r="4.029"/><circle cx="4.029" cy="48.661" r="4.029"/></symbol><symbol id="pencil" viewBox="-1 0 393 393.15442"><title>pencil</title><path d="m342.402344 14.621094c-19.542969-19.496094-51.171875-19.496094-70.710938 0l-237.089844 237.089844c-2.886718 2.886718-3.726562 7.242187-2.121093 11l-32.050781 117.820312c-.945313 3.472656.050781 7.1875 2.605468 9.722656 2.558594 2.535156 6.28125 3.5 9.746094 2.527344l116.933594-32.867188c3.746094 1.574219 8.070312.722657 10.941406-2.148437l237.089844-237.089844c19.523437-19.527343 19.523437-51.183593 0-70.710937zm-84.601563 42.167968 77.351563 78.195313-201.570313 201.566406-77.769531-77.769531zm-209.246093 223.019532 64.121093 64.117187-88.316406 24.828125zm315.046874-173.273438-14.304687 14.304688-77.351563-78.191406 13.886719-13.882813c11.726563-11.699219 30.703125-11.699219 42.429688 0l35.34375 35.34375c11.695312 11.722656 11.695312 30.703125-.003907 42.425781zm0 0"/></symbol><symbol id="star" viewBox="0 0 55.867 55.867"><title>star</title><path d="M55.818,21.578c-0.118-0.362-0.431-0.626-0.808-0.681L36.92,18.268L28.83,1.876c-0.168-0.342-0.516-0.558-0.896-0.558 s-0.729,0.216-0.896,0.558l-8.091,16.393l-18.09,2.629c-0.377,0.055-0.689,0.318-0.808,0.681c-0.117,0.361-0.02,0.759,0.253,1.024 l13.091,12.76l-3.091,18.018c-0.064,0.375,0.09,0.754,0.397,0.978c0.309,0.226,0.718,0.255,1.053,0.076l16.182-8.506l16.18,8.506 c0.146,0.077,0.307,0.115,0.466,0.115c0.207,0,0.413-0.064,0.588-0.191c0.308-0.224,0.462-0.603,0.397-0.978l-3.09-18.017 l13.091-12.761C55.838,22.336,55.936,21.939,55.818,21.578z"/></symbol><symbol id="star-1" viewBox="0 0 55.867 55.867"><title>star-1</title><path d="M11.287,54.548c-0.207,0-0.414-0.064-0.588-0.191c-0.308-0.224-0.462-0.603-0.397-0.978l3.091-18.018L0.302,22.602 c-0.272-0.266-0.37-0.663-0.253-1.024c0.118-0.362,0.431-0.626,0.808-0.681l18.09-2.629l8.091-16.393 c0.168-0.342,0.516-0.558,0.896-0.558l0,0c0.381,0,0.729,0.216,0.896,0.558l8.09,16.393l18.091,2.629 c0.377,0.055,0.689,0.318,0.808,0.681c0.117,0.361,0.02,0.759-0.253,1.024L42.475,35.363l3.09,18.017 c0.064,0.375-0.09,0.754-0.397,0.978c-0.308,0.226-0.717,0.255-1.054,0.076l-16.18-8.506l-16.182,8.506 C11.606,54.51,11.446,54.548,11.287,54.548z M3.149,22.584l12.016,11.713c0.235,0.229,0.343,0.561,0.287,0.885L12.615,51.72 l14.854-7.808c0.291-0.154,0.638-0.154,0.931,0l14.852,7.808l-2.836-16.538c-0.056-0.324,0.052-0.655,0.287-0.885l12.016-11.713 l-16.605-2.413c-0.326-0.047-0.607-0.252-0.753-0.547L27.934,4.578l-7.427,15.047c-0.146,0.295-0.427,0.5-0.753,0.547L3.149,22.584z "/></symbol><symbol id="pin" viewBox="0 0 430.118 430.118"><title>pin</title><polygon id="Pinboard" points="261.954,241.518 345.998,152.215 265.165,172.048 135.835,52.944 135.835,0 0,138.958 61.431,135.654 171.387,271.298 158.461,344.086 239.29,261.385 430.118,430.118 "/></symbol><symbol id="pin-1" viewBox="0 0 463 463"><title>pin-1</title><path d="M303.5,208h-1.151L287.582,45.568C296.571,42.265,303,33.62,303,23.5C303,10.542,292.458,0,279.5,0h-96 C170.542,0,160,10.542,160,23.5c0,10.12,6.429,18.765,15.418,22.068L160.651,208H159.5c-12.958,0-23.5,10.542-23.5,23.5 s10.542,23.5,23.5,23.5H224v200.5c0,4.143,3.357,7.5,7.5,7.5s7.5-3.357,7.5-7.5V255h64.5c12.958,0,23.5-10.542,23.5-23.5 S316.458,208,303.5,208z M183.5,15h96c4.687,0,8.5,3.813,8.5,8.5s-3.813,8.5-8.5,8.5h-96c-4.687,0-8.5-3.813-8.5-8.5 S178.813,15,183.5,15z M190.349,47h82.303l14.636,161H175.712L190.349,47z M303.5,240h-144c-4.687,0-8.5-3.813-8.5-8.5 s3.813-8.5,8.5-8.5h144c4.687,0,8.5,3.813,8.5,8.5S308.187,240,303.5,240z"/></symbol><symbol id="paint-palette" viewBox="0 0 512 512"><title>paint-palette</title><g> <g> <path d="M408.448,239.315c-1.36-16.922-12.556-31.633-28.522-37.481c-15.954-5.846-34.032-1.871-46.058,10.121l-5.479,5.462 c-5.598,5.58-14.696,5.59-20.282,0.021c-2.685-2.677-4.164-6.245-4.163-10.049c0-3.812,1.486-7.391,4.184-10.08l32.186-32.09 c8.597-8.571,13.269-20.43,12.819-32.533c-0.446-12.112-5.986-23.589-15.198-31.488C298.953,67.775,249.05,50.366,197.383,52.22 c-51.932,1.849-100.748,23.02-137.456,59.613C21.282,150.358-0.001,201.643,0,256.24c0,54.512,21.227,105.691,59.768,144.113 c39.833,39.71,92.165,59.561,144.517,59.561c52.429,0,104.878-19.909,144.812-59.723 C391.616,357.804,413.249,299.168,408.448,239.315z M334.979,386.028c-72.028,71.803-189.152,71.876-261.09,0.161 C39.138,351.548,20,305.397,20,256.24c0-49.243,19.194-95.498,54.047-130.243c33.121-33.018,77.176-52.121,124.048-53.789 c2.24-0.08,4.474-0.12,6.705-0.12c44.22,0,86.646,15.596,120.119,44.294c4.989,4.277,7.988,10.488,8.23,17.044 c0.243,6.556-2.291,12.983-6.954,17.631l-32.184,32.088c-6.49,6.467-10.064,15.076-10.065,24.243 c-0.001,9.158,3.565,17.758,10.042,24.215c13.371,13.33,35.138,13.321,48.522-0.02l5.48-5.463 c6.544-6.525,16.38-8.686,25.058-5.506c8.658,3.172,14.729,11.142,15.466,20.304C392.844,294.904,373.332,347.795,334.979,386.028 z"/> </g> </g><g> <g> <path d="M183.594,309.008c-7.473-2.81-14.18-7.143-19.935-12.88c-14.357-14.313-16.501-31.133-16.501-39.886 c0-8.804,2.164-25.731,16.66-40.182c2.258-2.252,4.715-4.324,7.3-6.16c4.503-3.198,5.561-9.44,2.363-13.943 c-3.197-4.503-9.44-5.561-13.943-2.363c-3.487,2.477-6.798,5.269-9.84,8.302c-19.613,19.552-22.541,42.443-22.541,54.347 c0,11.854,2.908,34.637,22.381,54.05c7.779,7.755,16.869,13.622,27.018,17.436c1.159,0.436,2.348,0.643,3.517,0.643 c4.046,0,7.855-2.474,9.363-6.485C191.379,316.717,188.764,310.951,183.594,309.008z"/> </g> </g><g> <g> <path d="M226.358,319.898c-0.971-5.438-6.168-9.053-11.602-8.087l-0.353,0.064c-4.843,0.864-8.244,5.079-8.244,9.832 c0,0.584,0.051,1.176,0.157,1.771c0.865,4.842,5.08,8.243,9.833,8.243c0.583,0,1.175-0.05,1.769-0.157l0.353-0.063 c4.843-0.865,8.244-5.08,8.244-9.833C226.516,321.085,226.464,320.493,226.358,319.898z"/> </g> </g><g> <g> <path d="M295.995,135.468c-0.642-10.868-5.488-20.832-13.645-28.056c-16.819-14.898-42.677-13.367-57.641,3.42 c-7.26,8.147-10.903,18.624-10.26,29.501c0.642,10.867,5.488,20.83,13.645,28.055c7.754,6.867,17.427,10.243,27.068,10.243 c11.274,0,22.505-4.619,30.569-13.667C292.992,156.82,296.637,146.344,295.995,135.468z M270.799,151.657 c-7.644,8.58-20.854,9.367-29.445,1.758c-4.148-3.675-6.613-8.741-6.94-14.263c-0.327-5.534,1.529-10.866,5.226-15.014 c4.123-4.626,9.864-6.986,15.626-6.986c4.923,0,9.864,1.725,13.822,5.231l0.001,0.001c4.149,3.674,6.613,8.74,6.939,14.262 C276.355,142.177,274.498,147.507,270.799,151.657z"/> </g> </g><g> <g> <path d="M197.252,134.358c-0.638-10.874-5.483-20.843-13.644-28.072c-8.152-7.219-18.641-10.838-29.523-10.193 c-0.001,0-0.001,0-0.001,0c-22.481,1.338-39.699,20.671-38.381,43.098c0.64,10.875,5.486,20.844,13.646,28.071 c7.53,6.669,17.049,10.266,27.037,10.266c0.826,0,1.656-0.024,2.487-0.075C181.352,176.118,198.568,156.785,197.252,134.358z M157.686,157.488c-5.56,0.334-10.918-1.515-15.077-5.198c-4.15-3.675-6.615-8.745-6.94-14.273 c-0.671-11.425,8.123-21.275,19.602-21.959c5.564-0.339,10.917,1.517,15.077,5.2c4.15,3.676,6.614,8.744,6.938,14.271 C177.957,146.956,169.165,156.806,157.686,157.488z"/> </g> </g><g> <g> <path d="M126.556,203.163c-0.642-10.867-5.487-20.83-13.644-28.056c-16.824-14.897-42.68-13.362-57.641,3.425 c-7.26,8.147-10.904,18.624-10.261,29.501c0.642,10.867,5.487,20.828,13.643,28.051c7.755,6.867,17.428,10.243,27.07,10.243 c11.275-0.001,22.507-4.618,30.571-13.666C123.554,224.515,127.198,214.038,126.556,203.163z M101.362,219.354 c-7.645,8.579-20.857,9.366-29.45,1.757c-4.148-3.673-6.612-8.737-6.938-14.258c-0.327-5.534,1.53-10.866,5.228-15.015 c4.123-4.627,9.865-6.988,15.628-6.988c4.923,0,9.862,1.724,13.821,5.228c4.149,3.675,6.613,8.741,6.939,14.263 C106.917,209.873,105.06,215.205,101.362,219.354z"/> </g> </g><g> <g> <path d="M125.315,301.626c-0.639-10.873-5.484-20.84-13.645-28.069c-8.152-7.219-18.641-10.834-29.524-10.194 c-22.478,1.339-39.695,20.672-38.379,43.096c0.638,10.875,5.483,20.845,13.644,28.073c7.531,6.67,17.05,10.268,27.041,10.268 c0.825,0,1.655-0.026,2.485-0.075C109.414,343.385,126.63,324.051,125.315,301.626z M85.748,324.76 c-5.561,0.329-10.917-1.515-15.077-5.199c-4.15-3.676-6.614-8.745-6.938-14.272v-0.001c-0.67-11.425,8.123-21.276,19.601-21.96 c0.425-0.025,0.847-0.038,1.269-0.038c5.103,0,9.965,1.836,13.807,5.238c4.15,3.677,6.615,8.745,6.939,14.27 C106.019,314.224,97.226,324.075,85.748,324.76z"/> </g> </g><g> <g> <path d="M194.255,372.018c-0.641-10.866-5.486-20.829-13.643-28.055c-16.822-14.9-42.68-13.364-57.643,3.424 c-7.258,8.146-10.902,18.621-10.259,29.496c0.642,10.867,5.487,20.83,13.643,28.056h0.001 c7.755,6.869,17.427,10.245,27.069,10.245c11.276,0,22.509-4.619,30.571-13.67C191.253,393.368,194.897,382.893,194.255,372.018z M169.063,388.209c-7.644,8.581-20.854,9.371-29.447,1.76c-4.149-3.676-6.614-8.742-6.94-14.265 c-0.326-5.532,1.53-10.863,5.226-15.011c7.647-8.58,20.859-9.368,29.45-1.759c4.148,3.676,6.613,8.742,6.939,14.263 C174.618,378.729,172.761,384.06,169.063,388.209z"/> </g> </g><g> <g> <path d="M292.999,373.158c-0.638-10.873-5.484-20.841-13.645-28.069c-8.151-7.22-18.641-10.835-29.523-10.194 c-22.476,1.339-39.693,20.671-38.379,43.098c0.64,10.874,5.486,20.842,13.646,28.069c7.53,6.669,17.05,10.267,27.04,10.267 c0.824,0,1.652-0.026,2.481-0.075h0.001C277.099,414.918,294.315,395.585,292.999,373.158z M253.434,396.29 c-5.562,0.33-10.917-1.516-15.076-5.199c-4.151-3.677-6.615-8.745-6.94-14.27c-0.67-11.426,8.124-21.277,19.6-21.961 c0.424-0.025,0.847-0.038,1.268-0.038c5.104,0,9.966,1.836,13.808,5.239c4.151,3.677,6.615,8.744,6.939,14.269 C273.704,385.757,264.912,395.607,253.434,396.29z"/> </g> </g><g> <g> <path d="M495.184,187.747c10.36-9.023,16.816-22.3,16.816-36.656c0-3.01-0.206-6.041-0.61-8.99 c-4.477-33.154-32.153-56.019-40.528-62.235c-1.141-0.848-1.789-1.283-1.789-1.283c-3.338-2.246-7.727-2.293-11.094-0.086 c-1.758,1.152-43.061,28.732-43.061,72.595c0,14.356,6.457,27.634,16.819,36.656c-2.133,13.045-3.709,27.936-4.59,43.479 c-0.571,10.064-0.865,40.404-0.865,51.135c0,34.104,2.96,70.042,8.119,98.602c6.862,37.98,15.552,54.186,29.057,54.186 s22.195-16.205,29.057-54.186c5.16-28.559,8.119-64.498,8.119-98.602c0-10.733-0.294-41.076-0.865-51.135 C498.876,215.441,497.335,200.848,495.184,187.747z M474.031,370.385c-3.874,24.163-7.976,35.814-10.571,41.213 c-2.595-5.398-6.697-17.05-10.571-41.213c-4.198-26.183-6.605-58.266-6.605-88.022c0-7.879,0.172-27.555,0.498-40.568h33.357 c0.325,13.013,0.497,32.688,0.497,40.568C480.636,312.12,478.228,344.203,474.031,370.385z M447.835,221.794 c0.666-8.378,1.54-16.434,2.598-23.946c0.838,0.233,1.687,0.445,2.545,0.634c0.707,0.156,1.428,0.234,2.151,0.234h16.667 c0.724,0,1.445-0.078,2.151-0.234c0.856-0.188,1.703-0.4,2.541-0.633c1.058,7.512,1.932,15.567,2.598,23.945H447.835z M470.623,178.717h-14.322c-12.45-3.215-21.382-14.673-21.382-27.625c0-24.632,18.832-43.537,28.476-51.602 c8.69,7.404,25.312,24.081,28.177,45.306c0.284,2.072,0.428,4.19,0.428,6.296C492,164.043,483.069,175.501,470.623,178.717z"/> </g> </g></symbol><symbol id="download" viewBox="-10 0 410 410"><title>download</title><path d="m109.074219 222.367188 78.707031 74c3.851562 3.621093 9.851562 3.621093 13.703125 0l78.707031-74c4.023438-3.78125 4.21875-10.109376.4375-14.132813-3.785156-4.023437-10.113281-4.21875-14.136718-.4375l-61.859376 58.15625v-255.953125c0-5.523438-4.476562-10-10-10-5.523437 0-10 4.476562-10 10v255.953125l-61.859374-58.152344c-4.023438-3.785156-10.351563-3.589843-14.136719.433594-3.78125 4.027344-3.585938 10.355469.4375 14.136719zm0 0"/><path d="m339.265625 74.300781h-50.707031c-5.523438 0-10 4.476563-10 10 0 5.523438 4.476562 10 10 10h50.707031c16.5625.019531 29.980469 13.4375 30 30v235.699219c-.019531 16.5625-13.4375 29.980469-30 30h-289.265625c-16.5625-.019531-29.980469-13.4375-30-30v-235.699219c.019531-16.5625 13.4375-29.980469 30-30h50.710938c5.519531 0 10-4.476562 10-10 0-5.523437-4.480469-10-10-10h-50.710938c-27.601562.03125-49.96875 22.398438-50 50v235.699219c.03125 27.601562 22.398438 49.96875 50 50h289.265625c27.601563-.03125 49.96875-22.398438 50-50v-235.699219c-.03125-27.601562-22.398437-49.96875-50-50zm0 0"/></symbol><symbol id="folder-1" viewBox="1 0 511.99996 511"><title>folder-1</title><path d="m512 168.9375h-65.265625v-114.03125h-232.304687l-29.015626-54.40625h-185.414062v331.949219h65.265625v114.03125h215.488281l39.90625 65.085937 39.90625-65.085937h151.433594zm-481.976562 133.492188v-271.90625h137.378906l29.015625 54.40625h220.292969v84.011718h-137.015626l-29.011718-54.410156h-185.417969v187.898438zm249.691406 84.925781h14.105468v-107.410157h53.675782v107.410157h14.109375l-40.945313 66.777343zm202.261718 29.105469h-103l36.253907-59.128907h-37.710938v-107.410156h-113.71875v107.410156h-37.710937l36.253906 59.128907h-167.054688v-271.90625h137.378907l29.015625 54.40625h220.292968zm0 0"/></symbol><symbol id="settings" viewBox="0 0 54 54"><title>settings</title><path d="M51.22,21h-5.052c-0.812,0-1.481-0.447-1.792-1.197s-0.153-1.54,0.42-2.114l3.572-3.571 c0.525-0.525,0.814-1.224,0.814-1.966c0-0.743-0.289-1.441-0.814-1.967l-4.553-4.553c-1.05-1.05-2.881-1.052-3.933,0l-3.571,3.571 c-0.574,0.573-1.366,0.733-2.114,0.421C33.447,9.313,33,8.644,33,7.832V2.78C33,1.247,31.753,0,30.22,0H23.78 C22.247,0,21,1.247,21,2.78v5.052c0,0.812-0.447,1.481-1.197,1.792c-0.748,0.313-1.54,0.152-2.114-0.421l-3.571-3.571 c-1.052-1.052-2.883-1.05-3.933,0l-4.553,4.553c-0.525,0.525-0.814,1.224-0.814,1.967c0,0.742,0.289,1.44,0.814,1.966l3.572,3.571 c0.573,0.574,0.73,1.364,0.42,2.114S8.644,21,7.832,21H2.78C1.247,21,0,22.247,0,23.78v6.439C0,31.753,1.247,33,2.78,33h5.052 c0.812,0,1.481,0.447,1.792,1.197s0.153,1.54-0.42,2.114l-3.572,3.571c-0.525,0.525-0.814,1.224-0.814,1.966 c0,0.743,0.289,1.441,0.814,1.967l4.553,4.553c1.051,1.051,2.881,1.053,3.933,0l3.571-3.572c0.574-0.573,1.363-0.731,2.114-0.42 c0.75,0.311,1.197,0.98,1.197,1.792v5.052c0,1.533,1.247,2.78,2.78,2.78h6.439c1.533,0,2.78-1.247,2.78-2.78v-5.052 c0-0.812,0.447-1.481,1.197-1.792c0.751-0.312,1.54-0.153,2.114,0.42l3.571,3.572c1.052,1.052,2.883,1.05,3.933,0l4.553-4.553 c0.525-0.525,0.814-1.224,0.814-1.967c0-0.742-0.289-1.44-0.814-1.966l-3.572-3.571c-0.573-0.574-0.73-1.364-0.42-2.114 S45.356,33,46.168,33h5.052c1.533,0,2.78-1.247,2.78-2.78V23.78C54,22.247,52.753,21,51.22,21z M52,30.22 C52,30.65,51.65,31,51.22,31h-5.052c-1.624,0-3.019,0.932-3.64,2.432c-0.622,1.5-0.295,3.146,0.854,4.294l3.572,3.571 c0.305,0.305,0.305,0.8,0,1.104l-4.553,4.553c-0.304,0.304-0.799,0.306-1.104,0l-3.571-3.572c-1.149-1.149-2.794-1.474-4.294-0.854 c-1.5,0.621-2.432,2.016-2.432,3.64v5.052C31,51.65,30.65,52,30.22,52H23.78C23.35,52,23,51.65,23,51.22v-5.052 c0-1.624-0.932-3.019-2.432-3.64c-0.503-0.209-1.021-0.311-1.533-0.311c-1.014,0-1.997,0.4-2.761,1.164l-3.571,3.572 c-0.306,0.306-0.801,0.304-1.104,0l-4.553-4.553c-0.305-0.305-0.305-0.8,0-1.104l3.572-3.571c1.148-1.148,1.476-2.794,0.854-4.294 C10.851,31.932,9.456,31,7.832,31H2.78C2.35,31,2,30.65,2,30.22V23.78C2,23.35,2.35,23,2.78,23h5.052 c1.624,0,3.019-0.932,3.64-2.432c0.622-1.5,0.295-3.146-0.854-4.294l-3.572-3.571c-0.305-0.305-0.305-0.8,0-1.104l4.553-4.553 c0.304-0.305,0.799-0.305,1.104,0l3.571,3.571c1.147,1.147,2.792,1.476,4.294,0.854C22.068,10.851,23,9.456,23,7.832V2.78 C23,2.35,23.35,2,23.78,2h6.439C30.65,2,31,2.35,31,2.78v5.052c0,1.624,0.932,3.019,2.432,3.64 c1.502,0.622,3.146,0.294,4.294-0.854l3.571-3.571c0.306-0.305,0.801-0.305,1.104,0l4.553,4.553c0.305,0.305,0.305,0.8,0,1.104 l-3.572,3.571c-1.148,1.148-1.476,2.794-0.854,4.294c0.621,1.5,2.016,2.432,3.64,2.432h5.052C51.65,23,52,23.35,52,23.78V30.22z"/><path d="M27,18c-4.963,0-9,4.037-9,9s4.037,9,9,9s9-4.037,9-9S31.963,18,27,18z M27,34c-3.859,0-7-3.141-7-7s3.141-7,7-7 s7,3.141,7,7S30.859,34,27,34z"/></symbol><symbol id="script" viewBox="0 0 511.999 511.999"><title>script</title><g> <g> <path d="M359.983,130.296H200.219c-4.145,0-7.505,3.36-7.505,7.505c0,4.145,3.36,7.505,7.505,7.505h159.763 c4.145,0,7.506-3.36,7.506-7.505C367.488,133.655,364.128,130.296,359.983,130.296z"/> </g> </g><g> <g> <path d="M165.297,130.296h-25.306c-4.145,0-7.505,3.36-7.505,7.505c0,4.145,3.359,7.505,7.505,7.505h25.306 c4.145,0,7.505-3.36,7.505-7.505C172.802,133.656,169.442,130.296,165.297,130.296z"/> </g> </g><g> <g> <path d="M218.49,360.341h-78.499c-4.145,0-7.505,3.36-7.505,7.505c0,4.146,3.36,7.505,7.505,7.505h78.499 c4.145,0,7.505-3.36,7.505-7.505C225.995,363.7,222.635,360.341,218.49,360.341z"/> </g> </g><g> <g> <path d="M249.987,283.66H139.991c-4.145,0-7.505,3.36-7.505,7.505c0,4.146,3.36,7.505,7.505,7.505h109.996 c4.144,0,7.505-3.36,7.505-7.505C257.492,287.019,254.132,283.66,249.987,283.66z"/> </g> </g><g> <g> <path d="M303.53,206.977H139.991c-4.145,0-7.505,3.36-7.505,7.505s3.36,7.505,7.505,7.505H303.53 c4.145,0.001,7.505-3.359,7.505-7.505S307.675,206.977,303.53,206.977z"/> </g> </g><g> <g> <path d="M445.564,53.51h-310.17c-27.474,0-49.825,22.352-49.825,49.826V398.64H7.504c-2.003,0-3.924,0.801-5.333,2.224 c-1.41,1.424-2.192,3.352-2.171,5.355c0.296,29.8,21.711,52.271,49.813,52.271h310.17h0.945c27.474,0,49.825-22.352,49.825-49.826 v-90.943c0-4.145-3.361-7.504-7.506-7.504c-4.145,0-7.505,3.36-7.505,7.505v90.943c0,19.198-15.618,34.815-34.814,34.815h-0.945 c-19.629,0-34.591-16.083-34.803-37.409c-0.041-4.116-3.389-7.431-7.505-7.431H100.583V103.335 c0-19.198,15.618-34.815,34.814-34.815h274.558c-0.22,0.225-0.428,0.461-0.644,0.691c-0.262,0.279-0.527,0.555-0.783,0.839 c-0.271,0.301-0.532,0.61-0.795,0.918c-0.253,0.295-0.508,0.587-0.754,0.888c-0.255,0.312-0.499,0.632-0.747,0.95 c-0.24,0.308-0.482,0.613-0.715,0.927c-0.238,0.322-0.466,0.651-0.697,0.979c-0.227,0.322-0.457,0.642-0.677,0.969 c-0.221,0.331-0.432,0.669-0.645,1.006c-0.213,0.335-0.429,0.667-0.634,1.007c-0.206,0.342-0.4,0.691-0.597,1.038 c-0.197,0.345-0.399,0.688-0.588,1.039c-0.19,0.351-0.366,0.71-0.547,1.067c-0.181,0.356-0.367,0.709-0.539,1.069 c-0.173,0.362-0.332,0.731-0.497,1.097c-0.164,0.365-0.333,0.727-0.488,1.096c-0.157,0.373-0.299,0.753-0.447,1.13 c-0.146,0.372-0.297,0.741-0.434,1.117c-0.141,0.386-0.266,0.779-0.397,1.17c-0.126,0.376-0.259,0.748-0.377,1.128 c-0.124,0.4-0.231,0.807-0.345,1.212c-0.106,0.378-0.22,0.753-0.318,1.135c-0.107,0.42-0.197,0.846-0.294,1.27 c-0.085,0.373-0.179,0.744-0.255,1.12c-0.09,0.441-0.161,0.887-0.239,1.332c-0.064,0.368-0.138,0.732-0.194,1.102 c-0.072,0.475-0.124,0.956-0.183,1.435c-0.042,0.346-0.095,0.688-0.13,1.036c-0.054,0.536-0.087,1.078-0.124,1.619 c-0.02,0.297-0.052,0.592-0.067,0.89c-0.042,0.841-0.064,1.688-0.064,2.54v2.519v64.093c0,4.146,3.36,7.505,7.505,7.505 s7.505-3.36,7.505-7.505V113.36h77.203c2.003,0,3.924-0.801,5.333-2.224c1.41-1.424,2.192-3.352,2.171-5.355 C495.161,75.981,473.746,53.51,445.564,53.51z M310.693,413.651c0.103,0.777,0.223,1.546,0.356,2.31 c0.044,0.256,0.098,0.507,0.146,0.762c0.095,0.505,0.19,1.01,0.298,1.508c0.064,0.299,0.137,0.593,0.205,0.889 c0.104,0.449,0.209,0.898,0.324,1.341c0.08,0.311,0.167,0.619,0.252,0.927c0.117,0.422,0.235,0.843,0.361,1.26 c0.094,0.313,0.193,0.624,0.293,0.934c0.13,0.406,0.265,0.81,0.404,1.211c0.107,0.309,0.216,0.617,0.329,0.923 c0.146,0.398,0.297,0.792,0.452,1.184c0.118,0.298,0.235,0.596,0.357,0.891c0.165,0.397,0.337,0.789,0.51,1.181 c0.124,0.281,0.247,0.563,0.376,0.841c0.19,0.41,0.39,0.814,0.589,1.217c0.124,0.25,0.243,0.502,0.371,0.75 c0.244,0.473,0.499,0.938,0.756,1.402c0.093,0.169,0.182,0.341,0.277,0.508c0.357,0.628,0.726,1.246,1.107,1.854 c0.089,0.142,0.184,0.278,0.274,0.419c0.297,0.465,0.598,0.927,0.909,1.38c0.144,0.209,0.294,0.412,0.44,0.619 c0.268,0.378,0.536,0.755,0.814,1.124c0.167,0.222,0.338,0.438,0.508,0.657c0.268,0.345,0.538,0.689,0.814,1.025 c0.182,0.221,0.367,0.439,0.552,0.657c0.276,0.326,0.556,0.648,0.84,0.966c0.191,0.214,0.385,0.425,0.58,0.635 c0.139,0.15,0.273,0.306,0.414,0.454H49.812v0c-17.224,0-30.855-12.385-34.08-29.829H310.693z M411.12,98.348 c0.003-0.051,0.008-0.104,0.015-0.156c0.034-0.229,0.076-0.456,0.115-0.683c0.054-0.32,0.109-0.64,0.172-0.958 c0.048-0.242,0.102-0.482,0.155-0.722c0.066-0.298,0.133-0.595,0.206-0.89c0.062-0.248,0.128-0.495,0.195-0.741 c0.077-0.281,0.156-0.562,0.239-0.84c0.075-0.252,0.154-0.502,0.235-0.751c0.086-0.266,0.176-0.53,0.269-0.794 c0.09-0.255,0.181-0.51,0.277-0.762c0.094-0.249,0.193-0.495,0.293-0.742c0.105-0.26,0.21-0.519,0.322-0.776 c0.099-0.229,0.204-0.455,0.308-0.681c0.123-0.267,0.245-0.536,0.374-0.799c0.096-0.196,0.199-0.388,0.299-0.582 c0.148-0.288,0.294-0.576,0.45-0.859c0.06-0.11,0.126-0.216,0.187-0.325c0.693-1.227,1.454-2.411,2.286-3.54 c0.008-0.011,0.015-0.021,0.023-0.032c0.268-0.362,0.545-0.717,0.826-1.069c0.045-0.056,0.088-0.113,0.133-0.169 c0.275-0.34,0.559-0.673,0.846-1.002c0.053-0.061,0.106-0.123,0.16-0.184c0.292-0.33,0.591-0.653,0.896-0.972 c0.05-0.052,0.099-0.105,0.15-0.157c0.316-0.326,0.638-0.647,0.966-0.961c0.037-0.035,0.074-0.07,0.111-0.106 c0.346-0.328,0.698-0.65,1.058-0.964c0.012-0.011,0.025-0.021,0.037-0.032c4.596-4.003,10.252-6.826,16.494-7.988 c0.003-0.001,0.007-0.001,0.01-0.002c0.511-0.095,1.027-0.179,1.546-0.251c0.031-0.004,0.062-0.008,0.093-0.012 c0.495-0.068,0.993-0.126,1.494-0.173c0.076-0.007,0.153-0.011,0.23-0.017c0.459-0.04,0.919-0.074,1.383-0.096 c0.268-0.012,0.538-0.014,0.808-0.021c0.29-0.007,0.579-0.02,0.871-0.02c17.224,0,30.855,12.385,34.08,29.829H411.12z"/> </g> </g><g> <g> <path d="M511.992,191.831c-0.001-0.087-0.003-0.174-0.006-0.262c-0.03-0.706-0.157-1.386-0.37-2.03 c-0.01-0.032-0.014-0.065-0.025-0.096c-0.009-0.026-0.024-0.05-0.033-0.076c-0.118-0.329-0.254-0.649-0.414-0.955 c-0.02-0.038-0.043-0.073-0.063-0.111c-0.148-0.27-0.312-0.529-0.491-0.778c-0.038-0.053-0.074-0.108-0.113-0.16 c-0.197-0.26-0.411-0.506-0.64-0.738c-0.05-0.051-0.103-0.098-0.154-0.147c-0.216-0.208-0.444-0.403-0.684-0.584 c-0.032-0.024-0.062-0.051-0.095-0.075c-0.27-0.196-0.556-0.371-0.851-0.531c-0.057-0.031-0.114-0.059-0.172-0.088 c-0.301-0.152-0.609-0.291-0.932-0.402c-0.002-0.001-0.004-0.002-0.006-0.002c-0.321-0.11-0.654-0.193-0.993-0.26 c-0.075-0.015-0.15-0.028-0.226-0.04c-0.339-0.056-0.683-0.098-1.036-0.107c-62.798-1.625-144.684,13.492-186.083,60.752 c-18.118,20.683-26.478,46.923-34.562,72.298c-0.662,2.077-1.323,4.153-1.99,6.226c-0.028,0.087-0.055,0.175-0.08,0.264 l-12.684,45.049c-1.123,3.989,1.201,8.135,5.19,9.259c0.68,0.192,1.365,0.282,2.038,0.282c3.277,0,6.289-2.164,7.221-5.474 l11.764-41.782c14.381-6.74,25.961-9.892,41.603-14.145c8.114-2.208,17.311-4.708,28.44-8.131 c24.06-7.4,70.216-38.36,91.458-61.347c18.578-20.106,34.211-35.048,52.271-49.961c0.021-0.017,0.037-0.038,0.058-0.056 c0.263-0.223,0.513-0.46,0.743-0.717c0.014-0.016,0.029-0.03,0.043-0.045c0.227-0.257,0.433-0.533,0.624-0.821 c0.035-0.053,0.069-0.106,0.103-0.16c0.36-0.573,0.644-1.196,0.84-1.86c0.019-0.063,0.037-0.125,0.054-0.189 c0.087-0.326,0.159-0.658,0.202-1c0.002-0.014,0.002-0.027,0.003-0.041c0.028-0.232,0.048-0.467,0.054-0.705 C512.001,191.999,511.993,191.915,511.992,191.831z M329.897,255.031c17.469-19.943,44.244-34.976,79.582-44.68 c9.497-2.608,19.533-4.772,29.876-6.48c-26.281,12.745-51.41,28.708-65.453,38.089c-22.663,15.14-47.127,33.505-65.193,49.839 C314.055,278.257,320.518,265.738,329.897,255.031z M445.979,237.452c-20.674,22.373-65.325,51.183-84.846,57.186 c-10.894,3.35-19.964,5.818-27.967,7.994c-7.241,1.969-13.828,3.763-20.342,5.831c2.914-2.791,6.33-5.92,10.357-9.433 c16.206-14.136,37.18-29.971,59.059-44.587c37.882-25.307,72.164-43.071,97.315-50.772 C468.632,213.731,457.888,224.563,445.979,237.452z"/> </g> </g></symbol><symbol id="paper" viewBox="0 0 512 512"><title>paper</title><path d="M69.9,11v490h255.4l116.8-115.7V11H69.9z M89.7,31.9h331.5v338.8H321.1c-6.3,0-10.4,5.2-10.4,10.4v99h-221V31.9z M331.6,465.6v-75.1h75.1L331.6,465.6z"/><rect width="220" x="144.9" y="102.7" height="20.9"/><rect width="220" x="144.9" y="191.4" height="20.9"/><rect width="220" x="144.9" y="280" height="20.9"/></symbol><symbol id="home" viewBox="0 0 460.298 460.297"><title>home</title><path d="M230.149,120.939L65.986,256.274c0,0.191-0.048,0.472-0.144,0.855c-0.094,0.38-0.144,0.656-0.144,0.852v137.041 c0,4.948,1.809,9.236,5.426,12.847c3.616,3.613,7.898,5.431,12.847,5.431h109.63V303.664h73.097v109.64h109.629 c4.948,0,9.236-1.814,12.847-5.435c3.617-3.607,5.432-7.898,5.432-12.847V257.981c0-0.76-0.104-1.334-0.288-1.707L230.149,120.939 z"/><path d="M457.122,225.438L394.6,173.476V56.989c0-2.663-0.856-4.853-2.574-6.567c-1.704-1.712-3.894-2.568-6.563-2.568h-54.816 c-2.666,0-4.855,0.856-6.57,2.568c-1.711,1.714-2.566,3.905-2.566,6.567v55.673l-69.662-58.245 c-6.084-4.949-13.318-7.423-21.694-7.423c-8.375,0-15.608,2.474-21.698,7.423L3.172,225.438c-1.903,1.52-2.946,3.566-3.14,6.136 c-0.193,2.568,0.472,4.811,1.997,6.713l17.701,21.128c1.525,1.712,3.521,2.759,5.996,3.142c2.285,0.192,4.57-0.476,6.855-1.998 L230.149,95.817l197.57,164.741c1.526,1.328,3.521,1.991,5.996,1.991h0.858c2.471-0.376,4.463-1.43,5.996-3.138l17.703-21.125 c1.522-1.906,2.189-4.145,1.991-6.716C460.068,229.007,459.021,226.961,457.122,225.438z"/></symbol><symbol id="caret-down" viewBox="0 0 292.362 292.362"><title>caret-down</title><path d="M286.935,69.377c-3.614-3.617-7.898-5.424-12.848-5.424H18.274c-4.952,0-9.233,1.807-12.85,5.424 C1.807,72.998,0,77.279,0,82.228c0,4.948,1.807,9.229,5.424,12.847l127.907,127.907c3.621,3.617,7.902,5.428,12.85,5.428 s9.233-1.811,12.847-5.428L286.935,95.074c3.613-3.617,5.427-7.898,5.427-12.847C292.362,77.279,290.548,72.998,286.935,69.377z"/></symbol><symbol id="picture" viewBox="0 0 52 52"><title>picture</title><path d="M14,24.138c3.071,0,5.569-2.498,5.569-5.568C19.569,15.498,17.071,13,14,13s-5.569,2.498-5.569,5.569 C8.431,21.64,10.929,24.138,14,24.138z M14,15c1.968,0,3.569,1.602,3.569,3.569S15.968,22.138,14,22.138s-3.569-1.601-3.569-3.568 S12.032,15,14,15z"/><path d="M1,0v40v12h50V40V0H1z M3,2h46v26.727l-10.324-9.464c-0.196-0.179-0.454-0.268-0.72-0.262 c-0.265,0.012-0.515,0.129-0.694,0.325l-9.794,10.727l-4.743-4.743c-0.374-0.373-0.972-0.392-1.368-0.044L4.622,40H3V2z M49,50H3 v-8h46V50z M7.649,40l14.324-12.611l10.302,10.301c0.391,0.391,1.023,0.391,1.414,0s0.391-1.023,0-1.414l-4.807-4.807l9.181-10.054 L49,31.44V40H7.649z"/></symbol><symbol id="user" viewBox="0 0 53 53"><title>user</title><path style="fill:#E7ECED;" d="M18.613,41.552l-7.907,4.313c-0.464,0.253-0.881,0.564-1.269,0.903C14.047,50.655,19.998,53,26.5,53 c6.454,0,12.367-2.31,16.964-6.144c-0.424-0.358-0.884-0.68-1.394-0.934l-8.467-4.233c-1.094-0.547-1.785-1.665-1.785-2.888v-3.322 c0.238-0.271,0.51-0.619,0.801-1.03c1.154-1.63,2.027-3.423,2.632-5.304c1.086-0.335,1.886-1.338,1.886-2.53v-3.546 c0-0.78-0.347-1.477-0.886-1.965v-5.126c0,0,1.053-7.977-9.75-7.977s-9.75,7.977-9.75,7.977v5.126 c-0.54,0.488-0.886,1.185-0.886,1.965v3.546c0,0.934,0.491,1.756,1.226,2.231c0.886,3.857,3.206,6.633,3.206,6.633v3.24 C20.296,39.899,19.65,40.986,18.613,41.552z"/><g> <path style="fill:#556080;" d="M26.953,0.004C12.32-0.246,0.254,11.414,0.004,26.047C-0.138,34.344,3.56,41.801,9.448,46.76 c0.385-0.336,0.798-0.644,1.257-0.894l7.907-4.313c1.037-0.566,1.683-1.653,1.683-2.835v-3.24c0,0-2.321-2.776-3.206-6.633 c-0.734-0.475-1.226-1.296-1.226-2.231v-3.546c0-0.78,0.347-1.477,0.886-1.965v-5.126c0,0-1.053-7.977,9.75-7.977 s9.75,7.977,9.75,7.977v5.126c0.54,0.488,0.886,1.185,0.886,1.965v3.546c0,1.192-0.8,2.195-1.886,2.53 c-0.605,1.881-1.478,3.674-2.632,5.304c-0.291,0.411-0.563,0.759-0.801,1.03V38.8c0,1.223,0.691,2.342,1.785,2.888l8.467,4.233 c0.508,0.254,0.967,0.575,1.39,0.932c5.71-4.762,9.399-11.882,9.536-19.9C53.246,12.32,41.587,0.254,26.953,0.004z"/> </g></symbol><symbol id="round-done-button" viewBox="0 0 400 400"><title>round-done-button</title><path d="M199.996,0C89.713,0,0,89.72,0,200s89.713,200,199.996,200S400,310.28,400,200S310.279,0,199.996,0z M199.996,373.77 C104.18,373.77,26.23,295.816,26.23,200c0-95.817,77.949-173.769,173.766-173.769c95.817,0,173.771,77.953,173.771,173.769 C373.768,295.816,295.812,373.77,199.996,373.77z"/><path d="M272.406,134.526L169.275,237.652l-41.689-41.68c-5.123-5.117-13.422-5.12-18.545,0.003 c-5.125,5.125-5.125,13.425,0,18.548l50.963,50.955c2.561,2.558,5.916,3.838,9.271,3.838s6.719-1.28,9.279-3.842 c0.008-0.011,0.014-0.022,0.027-0.035L290.95,153.071c5.125-5.12,5.125-13.426,0-18.546 C285.828,129.402,277.523,129.402,272.406,134.526z"/></symbol><symbol id="undo-arrow" viewBox="0 0 20.298 20.298"><title>undo-arrow</title><path style="fill:#030104;" d="M0.952,11.102c0-0.264,0.213-0.474,0.475-0.474h2.421c0.262,0,0.475,0.21,0.475,0.474 c0,3.211,2.615,5.826,5.827,5.826s5.827-2.615,5.827-5.826c0-3.214-2.614-5.826-5.827-5.826c-0.34,0-0.68,0.028-1.016,0.089 v1.647c0,0.193-0.116,0.367-0.291,0.439C8.662,7.524,8.46,7.482,8.322,7.347L3.49,4.074c-0.184-0.185-0.184-0.482,0-0.667 l4.833-3.268c0.136-0.136,0.338-0.176,0.519-0.104c0.175,0.074,0.291,0.246,0.291,0.438V1.96c0.34-0.038,0.68-0.057,1.016-0.057 c5.071,0,9.198,4.127,9.198,9.198c0,5.07-4.127,9.197-9.198,9.197C5.079,20.299,0.952,16.172,0.952,11.102z"/></symbol></svg>